<svg xmlns="http://www.w3.org/2000/svg" width="176.999" height="257.492">
  <defs>
    <filter id="a" width="1.336" height="1.109" x="-.168" y="-.054" color-interpolation-filters="sRGB">
      <feGaussianBlur stdDeviation="3.252"/>
    </filter>
    <filter id="b" width="1.255" height="1.094" x="-.127" y="-.047" color-interpolation-filters="sRGB">
      <feGaussianBlur stdDeviation="3.001"/>
    </filter>
    <filter id="c" width="1.156" height="1.143" x="-.078" y="-.071" color-interpolation-filters="sRGB">
      <feGaussianBlur stdDeviation="2.732"/>
    </filter>
  </defs>
  <g fill="teal" transform="translate(-12 -767.87)">
    <path d="M173.248 767.87a60.954 60.954 0 0 0-4.457.19c-2.992.23-5.922.642-8.28 1.123-1.179.24-2.222.49-3.07.761-.85.27-1.451.447-2.12 1.047-1.613 1.446-2.374 3.34-2.714 5.232-.34 1.893-.317 3.828-.317 5.67 0 1.844-.03 3.59-.356 4.986-.326 1.396-.857 2.4-1.941 3.159-.585.41-2.956.641-5.052.419a32.23 32.23 0 0 1-3.882-.666l-.793 2.93s1.98.491 4.339.742c2.358.25 5.13.494 7.25-.99 1.8-1.26 2.737-3.077 3.169-4.928.432-1.85.416-3.79.416-5.651 0-1.862.007-3.652.277-5.157s.765-2.662 1.743-3.54c-.17.154.31-.163.99-.38.682-.217 1.616-.46 2.715-.685 2.196-.448 5.031-.847 7.884-1.065 2.852-.219 5.734-.238 8.002.019 2.269.256 3.813.951 4.081 1.294 3.546 4.524 4.153 12.334 2.199 21.749-1.954 9.415-6.385 20.327-12.262 30.921-11.754 21.188-31.531 39.039-45.916 43.744l1.01 2.874c16.125-5.275 35.7-23.596 47.68-45.19 5.99-10.798 10.538-21.928 12.578-31.76 2.04-9.83 1.678-18.485-2.773-24.165-1.351-1.724-3.623-2.18-6.22-2.474a36.882 36.882 0 0 0-4.18-.21z" color="#000" enable-background="accumulate" font-family="Sans" overflow="visible"/>
    <path d="M174.045 768.485c1.52-.004 2.982.062 4.336.207 2.708.29 5.075.741 6.483 2.445 4.64 5.614 5.018 14.168 2.891 23.885-2.127 9.717-6.847 20.717-13.09 31.389-12.488 21.344-32.827 39.428-49.635 44.642l-1.053-2.84C138.97 863.562 159.5 845.94 171.753 825c6.126-10.47 10.744-21.256 12.781-30.561 2.037-9.305 1.404-17.025-2.292-21.497-.28-.338-1.889-1.025-4.253-1.279-2.365-.253-5.369-.234-8.342-.018-2.974.216-5.928.61-8.218 1.053-1.145.221-2.12.462-2.829.677-.71.215-1.21.527-1.032.376-1.02.867-1.535 2.011-1.817 3.498-.282 1.487-.27 3.257-.269 5.097 0 1.84-.004 3.757-.454 5.586-.45 1.829-1.426 3.625-3.303 4.87-2.21 1.467-5.099 1.226-7.558.979-2.458-.248-4.522-.734-4.522-.734l.826-2.896s1.863.438 4.047.658c2.185.22 4.656-.009 5.266-.414 1.13-.75 1.704-1.743 2.044-3.122.34-1.379.372-3.106.371-4.927 0-1.821-.044-3.734.31-5.605.354-1.87 1.148-3.742 2.829-5.172.697-.592 1.345-.766 2.23-1.034s1.95-.515 3.18-.752c2.458-.476 5.512-.883 8.63-1.11a67.292 67.292 0 0 1 4.667-.188zm-147.699-.615a36.416 36.416 0 0 0-4.16.21c-2.598.293-4.87.75-6.22 2.473-4.451 5.68-4.814 14.334-2.773 24.166 2.04 9.831 6.569 20.961 12.559 31.758 11.98 21.595 31.574 39.916 47.699 45.19l1.01-2.873c-14.385-4.705-34.162-22.556-45.916-43.744-5.877-10.593-10.308-21.506-12.262-30.92-1.954-9.416-1.347-17.226 2.199-21.75.268-.343 1.812-1.038 4.08-1.294 2.269-.257 5.15-.238 8.003-.02 2.853.22 5.687.618 7.884 1.066a27.11 27.11 0 0 1 2.714.685c.68.217 1.16.534.99.38.979.878 1.473 2.035 1.744 3.54.27 1.505.258 3.295.257 5.157 0 1.862.004 3.8.436 5.651.432 1.85 1.368 3.668 3.17 4.929 2.118 1.483 4.89 1.24 7.25.99a35.904 35.904 0 0 0 4.337-.743l-.792-2.93s-1.787.443-3.882.666c-2.096.222-4.467-.01-5.052-.419-1.084-.76-1.635-1.763-1.96-3.159-.326-1.395-.358-3.142-.357-4.985 0-1.843.042-3.778-.297-5.67-.34-1.893-1.101-3.787-2.714-5.233-.669-.6-1.29-.776-2.14-1.047-.849-.27-1.871-.52-3.05-.761-2.358-.481-5.288-.894-8.28-1.123a61.232 61.232 0 0 0-4.477-.19z" color="#000" enable-background="accumulate" font-family="Sans" overflow="visible"/>
    <path d="M26.954 767.87a40.006 40.006 0 0 0-4.336.207c-2.708.29-5.076.741-6.484 2.445-4.64 5.613-5.017 14.168-2.89 23.885 2.126 9.717 6.847 20.717 13.09 31.389 12.487 21.343 32.827 41.428 49.635 46.642l1.053-2.84c-14.994-4.651-35.525-24.272-47.776-45.213-6.126-10.47-10.745-21.256-12.782-30.561-2.036-9.305-1.404-17.025 2.292-21.497.28-.338 1.89-1.025 4.254-1.279 2.364-.253 5.368-.234 8.342-.019 2.973.216 5.928.61 8.218 1.054 1.144.221 2.119.462 2.828.677.71.214 1.21.527 1.033.376 1.02.867 1.535 2.01 1.817 3.498.281 1.487.269 3.256.268 5.097 0 1.84.004 3.756.454 5.585.45 1.83 1.427 3.625 3.304 4.872 2.209 1.466 5.099 1.225 7.557.977a39.16 39.16 0 0 0 4.522-.733l-.826-2.896s-1.862.438-4.047.658c-2.184.22-4.655-.009-5.265-.414-1.13-.75-1.705-1.743-2.044-3.122-.34-1.379-.372-3.106-.372-4.927 0-1.822.045-3.734-.31-5.605-.354-1.87-1.147-3.742-2.828-5.172-.697-.592-1.345-.767-2.23-1.034-.885-.268-1.951-.515-3.18-.752-2.458-.476-5.512-.884-8.63-1.11a67.298 67.298 0 0 0-4.667-.188z" color="#000" enable-background="accumulate" font-family="Sans" overflow="visible"/>
    <path d="m46.35 1001.93 107.05-.786 4.407 14.147H43.831Zm48.594-216.837.079.19c-5.048.111-10.94.256-14.698.418-8.835.382-26.247 3.692-26.247 3.692l-1.287 3.692s18.717-3.315 28.188-3.692c6.342-.253 14.72-.754 18.838-1.009 4.13.255 12.485.757 18.818 1.009 9.47.377 28.168 3.692 28.168 3.692l-1.268-3.692s-17.41-3.31-26.246-3.692c-3.759-.162-9.65-.307-14.698-.418l.079-.19-4.853.095-4.873-.095z"/>
    <path d="M97.5 786.175v.19c-13.349.341-25.525-.82-43.422 5.347 0 0-1.422 31.09 3.21 47.971 3.454 12.59 9.335 27.351 19.194 36.287 14.011 10.988 34.003 10.629 46.63 0 9.859-8.936 15.76-23.696 19.215-36.287 4.63-16.881 3.209-47.97 3.209-47.97-17.906-6.17-30.085-5.024-43.441-5.367v-.17c-.774.044-1.536.083-2.298.113a129.7 129.7 0 0 1-2.298-.114z"/>
    <path d="m91.76 881.008 1.658 8.002 1.657 18.483-4.971 4.306 3.86 4.935s4.878 23.37-5.456 32.212c-2.353 2.013-2.14-1.175-2.14-1.175l-5.754 3.507-15.367 7.945c10.325 10.323 22.173 8.748 33.911 8.041 11.738.706 23.603 2.282 33.929-8.04l-15.368-7.946-5.755-3.507s.214 3.188-2.14 1.175c-10.333-8.843-5.455-32.212-5.455-32.212l3.86-4.935-4.97-4.306 1.656-18.483 1.657-8.002c-13.444 5.184-4.56 2.208-14.811 0z"/>
    <path d="m65.764 958.965-12.82.237-3.844 22.135c36.988 1.33 64.854.283 102.334 0l-5.765-22.135c-5.238-.104-17.166.128-12.32-1.237-19.43 10.21-52.626 13.288-67.585 1zm24.614-13.59c-2.648.726-4.29 1.744-4.29 2.873 0 2.207 6.296 3.996 14.054 3.996 7.759 0 14.036-1.79 14.036-3.996 0-1.129-1.642-2.147-4.29-2.873-.516.444-1.095.854-1.739 1.218 1.2.467 1.924 1.033 1.924 1.655 0 1.56-4.448 2.817-9.93 2.817-5.483 0-9.93-1.257-9.93-2.817 0-.622.704-1.188 1.904-1.655a10.879 10.879 0 0 1-1.739-1.218z"/>
    <path d="M-592.132 378.345c-24.342-21.175-40.342-23.957-46.467-141.421l6.06-2.02c.998 55.244-7.933 101.348 40.407 143.441z" filter="url(#a)" transform="matrix(.63388 0 0 .6089 462.714 647.442)"/>
    <path d="M-561.827 388.447c24.341-21.175 50.443-33.05 56.568-150.513l-6.06-2.02c-.998 55.244-2.168 110.44-50.508 152.533z" filter="url(#b)" transform="matrix(.63388 0 0 .6089 462.714 647.442)"/>
    <path d="m-614.355 236.183 13.132 83.574 60.609-1.145 10.101-84.718c-29.798-11.82-56.632-3.487-83.842 2.29z" filter="url(#c)" transform="matrix(.63388 0 0 .6089 462.714 647.442)"/>
    <path d="m90.58 880.008 1.92 8.092 1.922 18.688-5.764 4.355 4.477 4.99s5.635 21.094-6.993 30.518c-2.875 2.146-2.614-1.252-2.614-1.252l-7.033 3.737-16.659 9.961c11.972 10.438 25.71 8.845 39.32 8.13 13.611.715 27.369 2.308 39.341-8.13l-16.66-9.96-7.031-3.738s.26 3.398-2.615 1.252c-12.627-9.424-6.993-30.518-6.993-30.518l4.477-4.99-5.764-4.355 1.921-18.688 1.922-8.092c-15.59 5.242-5.289 2.232-17.175 0z"/>
    <rect width="101.591" height="28.179" x="49.594" y="980.23" ry=".509"/>
    <rect width="113.977" height="10.687" x="43.69" y="1014.675" ry="0"/>
  </g>
  <path fill="#e95420" d="M88.5 41.965A24.036 24.036 0 0 0 64.463 66 24.036 24.036 0 0 0 88.5 90.035 24.036 24.036 0 0 0 112.534 66a24.036 24.036 0 0 0-12.47-21.068l-8.176 14.92 10.178-.836-20.278 23.841 6.575-17.959-8.276 2.635 10.291-25.496a24.036 24.036 0 0 0-1.879-.072z"/>
</svg>
