<svg xmlns="http://www.w3.org/2000/svg" xmlns:xlink="http://www.w3.org/1999/xlink" width="131.242" height="131.242" version="1.0">
   <defs>
     <filter id="e" width="1.156" height="1.143" x="-.078" y="-.071" color-interpolation-filters="sRGB">
       <feGaussianBlur stdDeviation="2.732"/>
     </filter>
     <filter id="d" width="1.255" height="1.094" x="-.127" y="-.047" color-interpolation-filters="sRGB">
       <feGaussianBlur stdDeviation="3.001"/>
     </filter>
     <filter id="c" width="1.336" height="1.109" x="-.168" y="-.054" color-interpolation-filters="sRGB">
       <feGaussianBlur stdDeviation="3.252"/>
     </filter>
     <linearGradient id="a">
       <stop offset="0" stop-color="#fff"/>
       <stop offset="1" stop-color="#fff" stop-opacity="0"/>
     </linearGradient>
     <linearGradient xlink:href="#a" id="b" x1="-344.153" x2="-395.849" y1="274.711" y2="425.4" gradientTransform="matrix(-.59146 0 0 .59146 154.896 149.463)" gradientUnits="userSpaceOnUse"/>
   </defs>
   <text xml:space="preserve" x="209.126" y="719.007" fill="#ffc022" font-family="sans-serif" letter-spacing="0" opacity=".376" transform="matrix(1.12096 0 0 .8921 -325.808 -332.81)" word-spacing="0"><tspan x="209.126" y="719.007" font-size="9.52"> </tspan></text>
   <g transform="translate(-325.808 -332.344)">
     <rect width="131.242" height="130.174" x="-457.05" y="332.806" fill="#f15d22" fill-rule="evenodd" rx="35.488" ry="35.488" transform="scale(-1 1)"/>
     <path fill="url(#b)" fill-rule="evenodd" d="M422.375 338.371h-61.893a29.508 29.508 0 0 0-29.573 29.573v59.898c.53 12.789 2.57 4.704 6.453-9.459 4.513-16.46 19.209-30.845 37.106-41.627 13.661-8.23 28.951-13.484 56.784-13.984 15.785-.283 14.391-20.32-8.877-24.4z"/>
     <path fill="#fff" d="M435.021 361.323c-.871.002-1.77.045-2.665.114a41.5 41.5 0 0 0-4.952.671 18.3 18.3 0 0 0-1.836.455c-.508.162-.868.268-1.268.626-.964.865-1.42 1.998-1.623 3.13-.203 1.131-.19 2.289-.19 3.39.001 1.103-.018 2.148-.212 2.982-.195.835-.513 1.435-1.161 1.89-.35.244-1.768.383-3.021.25-1.254-.133-2.322-.399-2.322-.399l-.474 1.753s1.184.294 2.594.444c1.411.15 3.069.295 4.336-.592 1.077-.754 1.637-1.84 1.896-2.947.258-1.107.249-2.267.248-3.38 0-1.114.004-2.184.166-3.084.162-.9.458-1.592 1.043-2.117-.102.092.185-.097.592-.227s.966-.276 1.623-.41a39.905 39.905 0 0 1 4.715-.637c1.706-.131 3.43-.142 4.786.011 1.357.154 2.28.57 2.44.774 2.12 2.706 2.484 7.377 1.315 13.007-1.168 5.63-3.818 12.157-7.333 18.492-7.029 12.671-18.857 23.347-27.46 26.16l.605 1.72c9.643-3.155 21.35-14.112 28.514-27.026 3.582-6.458 6.302-13.114 7.522-18.993 1.22-5.88 1.004-11.056-1.658-14.453-.808-1.03-2.166-1.303-3.72-1.479a22.06 22.06 0 0 0-2.5-.125z" color="#000" enable-background="accumulate" font-family="Sans" overflow="visible"/>
     <path fill="#fff" d="M435.498 361.69c.909-.001 1.783.038 2.593.124 1.62.174 3.035.444 3.878 1.463 2.774 3.357 3 8.473 1.728 14.284s-4.095 12.39-7.829 18.772c-7.467 12.764-19.631 23.58-29.683 26.697l-.63-1.698c8.967-2.781 21.245-13.32 28.572-25.843 3.664-6.261 6.426-12.712 7.644-18.277 1.218-5.565.84-10.181-1.37-12.856-.168-.202-1.13-.613-2.544-.764-1.414-.152-3.21-.14-4.99-.012a43.95 43.95 0 0 0-4.914.63 17.92 17.92 0 0 0-1.692.405c-.424.129-.723.315-.617.225-.61.519-.918 1.203-1.087 2.092-.168.89-.16 1.948-.16 3.048s-.002 2.247-.272 3.34c-.269 1.094-.853 2.169-1.976 2.914-1.32.877-3.049.733-4.519.585a23.491 23.491 0 0 1-2.704-.44l.494-1.731s1.113.262 2.42.394c1.306.131 2.784-.005 3.149-.248.676-.449 1.02-1.042 1.222-1.867.203-.825.223-1.858.222-2.947 0-1.09-.026-2.233.186-3.352.212-1.118.686-2.238 1.691-3.093.417-.354.805-.458 1.334-.618.53-.16 1.167-.308 1.902-.45a45.495 45.495 0 0 1 5.161-.664c.933-.067 1.882-.11 2.791-.112zm-88.33-.367a21.88 21.88 0 0 0-2.488.125c-1.553.176-2.912.449-3.72 1.48-2.662 3.396-2.878 8.572-1.658 14.452 1.22 5.88 3.928 12.535 7.51 18.993 7.165 12.914 18.883 23.87 28.526 27.025l.605-1.718c-8.603-2.814-20.43-13.49-27.46-26.16-3.515-6.336-6.165-12.863-7.333-18.493-1.169-5.63-.806-10.301 1.315-13.007.16-.205 1.084-.62 2.44-.774 1.357-.153 3.08-.142 4.786-.011 1.706.13 3.401.369 4.715.637.657.134 1.216.28 1.623.41.407.13.694.319.592.227.585.525.881 1.217 1.043 2.117.162.9.154 1.97.154 3.084 0 1.113.002 2.273.26 3.38.259 1.106.82 2.193 1.896 2.947 1.267.887 2.925.742 4.336.592 1.41-.15 2.594-.444 2.594-.444l-.474-1.753s-1.068.266-2.322.399c-1.253.133-2.67-.005-3.02-.25-.65-.455-.979-1.055-1.173-1.89-.195-.834-.214-1.88-.213-2.981 0-1.102.025-2.26-.178-3.391-.203-1.132-.659-2.265-1.623-3.13-.4-.358-.772-.464-1.28-.626a17.936 17.936 0 0 0-1.824-.455 41.502 41.502 0 0 0-4.952-.671 36.632 36.632 0 0 0-2.677-.114z" color="#000" enable-background="accumulate" font-family="Sans" overflow="visible"/>
     <path fill="#fff" d="M347.531 361.323a24.016 24.016 0 0 0-2.593.124c-1.62.173-3.035.443-3.877 1.462-2.775 3.357-3 8.473-1.729 14.284 1.272 5.811 4.095 12.39 7.829 18.772 7.468 12.764 19.632 24.776 29.684 27.894l.63-1.699c-8.968-2.781-21.246-14.515-28.573-27.039-3.663-6.261-6.426-12.712-7.644-18.277-1.218-5.565-.84-10.181 1.371-12.855.167-.203 1.13-.614 2.544-.765 1.414-.152 3.21-.14 4.989-.011 1.778.129 3.545.365 4.914.63.685.132 1.268.276 1.692.404.424.129.724.316.617.225.61.519.919 1.203 1.087 2.092.169.89.16 1.948.16 3.048 0 1.101.003 2.247.272 3.34.27 1.095.853 2.169 1.976 2.914 1.32.877 3.05.733 4.52.585a23.493 23.493 0 0 0 2.704-.439l-.494-1.732s-1.114.262-2.42.394c-1.307.131-2.785-.005-3.15-.248-.675-.449-1.019-1.042-1.222-1.867-.203-.825-.222-1.857-.222-2.947 0-1.089.027-2.233-.185-3.351-.212-1.12-.687-2.239-1.692-3.093-.417-.355-.804-.459-1.334-.62a19.506 19.506 0 0 0-1.901-.449 45.493 45.493 0 0 0-5.162-.664 40.263 40.263 0 0 0-2.79-.112z" color="#000" enable-background="accumulate" font-family="Sans" overflow="visible"/>
     <path fill="#fff" d="m388.192 370.427.048.114c-3.02.066-6.543.153-8.79.25-5.284.228-15.697 2.208-15.697 2.208l-.77 2.207s11.194-1.982 16.858-2.207c3.793-.152 8.803-.452 11.266-.604 2.47.153 7.467.453 11.254.604 5.663.225 16.845 2.207 16.845 2.207l-.758-2.207s-10.412-1.98-15.696-2.208c-2.248-.097-5.771-.184-8.79-.25l.047-.114-2.902.057-2.915-.057z"/>
     <path fill="#fff" d="M389.72 372.27v.114c-7.982.204-15.264-.49-25.967 3.198 0 0-.85 18.592 1.92 28.688 2.065 7.53 5.582 16.357 11.478 21.701 8.38 6.571 20.336 6.356 27.887 0 5.896-5.344 9.425-14.171 11.491-21.7 2.77-10.097 1.92-28.69 1.92-28.69-10.71-3.69-17.993-3.004-25.98-3.208v-.103c-.463.027-.918.05-1.374.069a77.323 77.323 0 0 1-1.374-.069z"/>
     <path fill="#fff" d="m386.289 428.984.99 3.448.992 7.962-2.973 1.855 2.309 2.127s2.916 10.068-3.263 13.877c-1.407.868-1.28-.506-1.28-.506l-3.441 1.511-9.254 3.676c6.532.194 13.145.304 20.165 0 7.02.304 14.893.18 20.532.063l-9.253-3.739-3.442-1.51s.128 1.373-1.28.505c-6.179-3.81-3.262-13.877-3.262-13.877l2.309-2.126-2.973-1.856.99-7.962.992-3.448c-8.04 2.234-2.728.951-8.858 0z"/>
     <path fill="#fff" d="M-592.132 378.345c-24.342-21.175-40.342-23.957-46.467-141.421l6.06-2.02c.998 55.244-7.933 101.348 40.407 143.441z" filter="url(#c)" transform="matrix(.37909 0 0 .36415 608.134 289.302)"/>
     <path fill="#fff" d="M-561.827 388.447c24.341-21.175 50.443-33.05 56.568-150.513l-6.06-2.02c-.998 55.244-2.168 110.44-50.508 152.533z" filter="url(#d)" transform="matrix(.37909 0 0 .36415 608.134 289.302)"/>
     <path fill="#fff" d="m-614.355 236.183 13.132 83.574 60.609-1.145 10.101-84.718c-29.798-11.82-56.632-3.487-83.842 2.29z" filter="url(#e)" transform="matrix(.37909 0 0 .36415 608.134 289.302)"/>
     <ellipse cx="390.996" cy="396.69" fill="#fff" rx="17.278" ry="16.218"/>
     <rect width="26.001" height="16.784" x="-388.308" y="446.163" fill="#f15d22" fill-rule="evenodd" rx="7.031" ry="4.576" transform="scale(-1 1)"/>
     <rect width="26.001" height="16.784" x="-419.159" y="446.163" fill="#f15d22" fill-rule="evenodd" rx="7.031" ry="4.576" transform="scale(-1 1)"/>
     <rect width="6.24" height="2.642" x="-393.831" y="460.348" fill="#fff" fill-rule="evenodd" rx="1.687" ry=".72" transform="scale(-1 1)"/>
     <g transform="translate(103.064 -120.939) scale(1.2066)">
       <ellipse cx="-99.753" cy="100.298" fill="#f15d22" rx="17.425" ry="14.647" transform="matrix(1 0 0 1.0431 338.94 324.067)"/>
       <text xml:space="preserve" x="218.051" y="478.539" fill="#fff" font-family="sans-serif" letter-spacing="0" word-spacing="0"><tspan x="218.051" y="478.539" font-size="87.549"></tspan></text>
     </g>
   </g>
</svg>
